<svg width="110" height="110" viewBox="0 0 110 110" fill="none" xmlns="http://www.w3.org/2000/svg">
<path d="M89.564 100.238C89.564 105.49 85.6298 109.744 80.7709 109.744H24.7139C19.8601 109.744 15.9242 105.488 15.9242 100.238V14.5184C15.9242 9.26074 19.8618 5.00684 24.7139 5.00684H80.7709C85.6298 5.00684 89.564 9.26074 89.564 14.5184V100.238Z" fill="#3265B3"/>
<path d="M53.1076 18.0623C53.1076 19.0609 51.1173 19.8688 48.6732 19.8688H20.3637C17.9128 19.8688 15.9259 19.0609 15.9259 18.0623V1.80297C15.9259 0.807813 17.9111 0 20.3637 0H48.6732C51.1173 0 53.1076 0.807813 53.1076 1.80297V18.0623Z" fill="#3265B3"/>
<path d="M93.9503 96.2501C93.9503 100.707 89.9766 104.311 85.0695 104.311H28.4212C23.5211 104.311 19.5405 100.705 19.5405 96.2501V23.5985C19.5405 19.1453 23.5211 15.5376 28.4212 15.5376H85.0695C89.9766 15.5376 93.9503 19.147 93.9503 23.5985V96.2501Z" fill="#E3EFFE"/>
<path d="M93.9503 90.5677C93.9503 95.0244 89.9766 98.6286 85.0695 98.6286H28.4212C23.5211 98.6286 19.5405 95.0227 19.5405 90.5677V17.9161C19.5405 13.4629 23.5211 9.85864 28.4212 9.85864H85.0695C89.9766 9.85864 93.9503 13.4646 93.9503 17.9161V90.5677Z" fill="#3265B3"/>
<path d="M74.0781 14.2313C74.0781 14.7676 71.4347 15.2041 68.1828 15.2041H30.5422C27.2835 15.2041 24.64 14.7676 24.64 14.2313V5.47428C24.64 4.93287 27.2835 4.50146 30.5422 4.50146H68.1828C71.4347 4.50146 74.0781 4.93287 74.0781 5.47428V14.2313Z" fill="#E3EFFE"/>
<path d="M34.4953 30.989H83.5862C86.8897 30.989 86.8897 26.3484 83.5862 26.3484H34.4953C31.2039 26.3484 31.2039 30.989 34.4953 30.989ZM34.4953 40.4164H83.5862C86.8897 40.4164 86.8897 35.7792 83.5862 35.7792H34.4953C31.2039 35.7792 31.2039 40.4164 34.4953 40.4164ZM34.4953 50.05H83.5862C86.8897 50.05 86.8897 45.4093 83.5862 45.4093H34.4953C31.2039 45.4093 31.2039 50.05 34.4953 50.05ZM34.4953 59.4687H83.5862C86.8897 59.4687 86.8897 54.8315 83.5862 54.8315H34.4953C31.2039 54.8315 31.2039 59.4687 34.4953 59.4687ZM34.4953 77.6531H57.0934C60.3865 77.6531 60.3865 73.0142 57.0934 73.0142H34.4953C31.2039 73.0125 31.2039 77.6531 34.4953 77.6531Z" fill="#E3EFFE"/>
</svg>