<svg width="74" height="92" viewBox="0 0 74 92" fill="none" xmlns="http://www.w3.org/2000/svg">
<path d="M14.0833 0.166748H59.9167C63.5634 0.166748 67.0608 1.6154 69.6394 4.19403C72.218 6.77265 73.6667 10.27 73.6667 13.9167V78.0834C73.6667 81.7301 72.218 85.2275 69.6394 87.8061C67.0608 90.3848 63.5634 91.8334 59.9167 91.8334H14.0833C10.4366 91.8334 6.93925 90.3848 4.36063 87.8061C1.782 85.2275 0.333344 81.7301 0.333344 78.0834L0.333344 13.9167C0.333344 10.27 1.782 6.77265 4.36063 4.19403C6.93925 1.6154 10.4366 0.166748 14.0833 0.166748ZM14.0833 9.33341C12.8678 9.33341 11.702 9.8163 10.8424 10.6758C9.9829 11.5354 9.50001 12.7012 9.50001 13.9167V78.0834C9.50001 79.299 9.9829 80.4648 10.8424 81.3243C11.702 82.1839 12.8678 82.6667 14.0833 82.6667H59.9167C61.1323 82.6667 62.298 82.1839 63.1576 81.3243C64.0171 80.4648 64.5 79.299 64.5 78.0834V13.9167C64.5 12.7012 64.0171 11.5354 63.1576 10.6758C62.298 9.8163 61.1323 9.33341 59.9167 9.33341H14.0833ZM23.25 13.9167H50.75C51.9656 13.9167 53.1314 14.3996 53.9909 15.2592C54.8505 16.1187 55.3333 17.2845 55.3333 18.5001C55.3333 19.7157 54.8505 20.8814 53.9909 21.741C53.1314 22.6005 51.9656 23.0834 50.75 23.0834H23.25C22.0344 23.0834 20.8686 22.6005 20.0091 21.741C19.1496 20.8814 18.6667 19.7157 18.6667 18.5001C18.6667 17.2845 19.1496 16.1187 20.0091 15.2592C20.8686 14.3996 22.0344 13.9167 23.25 13.9167ZM23.25 68.9167H32.4167C33.6323 68.9167 34.798 69.3996 35.6576 70.2592C36.5171 71.1187 37 72.2845 37 73.5001C37 74.7157 36.5171 75.8814 35.6576 76.741C34.798 77.6005 33.6323 78.0834 32.4167 78.0834H23.25C22.0344 78.0834 20.8686 77.6005 20.0091 76.741C19.1496 75.8814 18.6667 74.7157 18.6667 73.5001C18.6667 72.2845 19.1496 71.1187 20.0091 70.2592C20.8686 69.3996 22.0344 68.9167 23.25 68.9167ZM23.25 50.5834H50.75C51.9656 50.5834 53.1314 51.0663 53.9909 51.9258C54.8505 52.7854 55.3333 53.9512 55.3333 55.1667C55.3333 56.3823 54.8505 57.5481 53.9909 58.4076C53.1314 59.2672 51.9656 59.7501 50.75 59.7501H23.25C22.0344 59.7501 20.8686 59.2672 20.0091 58.4076C19.1496 57.5481 18.6667 56.3823 18.6667 55.1667C18.6667 53.9512 19.1496 52.7854 20.0091 51.9258C20.8686 51.0663 22.0344 50.5834 23.25 50.5834ZM23.25 32.2501H50.75C51.9656 32.2501 53.1314 32.733 53.9909 33.5925C54.8505 34.452 55.3333 35.6178 55.3333 36.8334C55.3333 38.049 54.8505 39.2148 53.9909 40.0743C53.1314 40.9339 51.9656 41.4167 50.75 41.4167H23.25C22.0344 41.4167 20.8686 40.9339 20.0091 40.0743C19.1496 39.2148 18.6667 38.049 18.6667 36.8334C18.6667 35.6178 19.1496 34.452 20.0091 33.5925C20.8686 32.733 22.0344 32.2501 23.25 32.2501Z" fill="#E3EFFE"/>
</svg>
