<svg width="25" height="20" viewBox="0 0 25 20" fill="none" xmlns="http://www.w3.org/2000/svg">
<path d="M0.5 6.076V16C0.5 17.0609 0.921427 18.0783 1.67157 18.8284C2.42172 19.5786 3.43913 20 4.5 20H20.5C21.5609 20 22.5783 19.5786 23.3284 18.8284C24.0786 18.0783 24.5 17.0609 24.5 16V4C24.5 2.93913 24.0786 1.92172 23.3284 1.17157C22.5783 0.421427 21.5609 0 20.5 0H4.5C3.43913 0 2.42172 0.421427 1.67157 1.17157C0.921427 1.92172 0.5 2.93913 0.5 4V6.076ZM4.5 2H20.5C21.0304 2 21.5391 2.21071 21.9142 2.58579C22.2893 2.96086 22.5 3.46957 22.5 4V5.48L12.5 10.864L2.5 5.48V4C2.5 3.46957 2.71071 2.96086 3.08579 2.58579C3.46086 2.21071 3.96957 2 4.5 2ZM2.5 7.752L12.026 12.88C12.1717 12.9584 12.3345 12.9995 12.5 12.9995C12.6655 12.9995 12.8283 12.9584 12.974 12.88L22.5 7.752V16C22.5 16.5304 22.2893 17.0391 21.9142 17.4142C21.5391 17.7893 21.0304 18 20.5 18H4.5C3.96957 18 3.46086 17.7893 3.08579 17.4142C2.71071 17.0391 2.5 16.5304 2.5 16V7.752Z" fill="#070F1C"/>
</svg>
