<svg width="11" height="18" viewBox="0 0 11 18" fill="none" xmlns="http://www.w3.org/2000/svg">
<path d="M11 0.499992C11 0.367384 10.9473 0.240207 10.8536 0.146439C10.7598 0.0526709 10.6326 -7.59214e-06 10.5 -7.59214e-06H8C6.74112 -0.0627167 5.5086 0.375384 4.57172 1.21857C3.63485 2.06176 3.06978 3.24149 3 4.49999V7.19999H0.5C0.367392 7.19999 0.240215 7.25267 0.146447 7.34644C0.0526785 7.44021 0 7.56738 0 7.69999V10.3C0 10.4326 0.0526785 10.5598 0.146447 10.6535C0.240215 10.7473 0.367392 10.8 0.5 10.8H3V17.5C3 17.6326 3.05268 17.7598 3.14645 17.8535C3.24021 17.9473 3.36739 18 3.5 18H6.5C6.63261 18 6.75979 17.9473 6.85355 17.8535C6.94732 17.7598 7 17.6326 7 17.5V10.8H9.62C9.73119 10.8016 9.83974 10.7661 9.92848 10.6991C10.0172 10.6321 10.0811 10.5374 10.11 10.43L10.83 7.82999C10.8499 7.75611 10.8526 7.67866 10.8378 7.60358C10.8231 7.52851 10.7913 7.45782 10.7449 7.39696C10.6985 7.3361 10.6388 7.2867 10.5704 7.25255C10.5019 7.2184 10.4265 7.20042 10.35 7.19999H7V4.49999C7.02487 4.25247 7.14111 4.0231 7.32602 3.85669C7.51093 3.69027 7.75123 3.59875 8 3.59999H10.5C10.6326 3.59999 10.7598 3.54731 10.8536 3.45355C10.9473 3.35978 11 3.2326 11 3.09999V0.499992Z" fill="white"/>
</svg>
