<svg width="12" height="18" viewBox="0 0 12 18" fill="none" xmlns="http://www.w3.org/2000/svg">
<path d="M11.5 0.500053C11.5 0.367445 11.4473 0.240268 11.3536 0.1465C11.2598 0.052732 11.1326 5.3443e-05 11 5.3443e-05H8.5C7.24112 -0.0626557 6.0086 0.375445 5.07172 1.21863C4.13485 2.06182 3.56978 3.24155 3.5 4.50005V7.20005H1C0.867392 7.20005 0.740215 7.25273 0.646447 7.3465C0.552679 7.44027 0.5 7.56744 0.5 7.70005V10.3001C0.5 10.4327 0.552679 10.5598 0.646447 10.6536C0.740215 10.7474 0.867392 10.8001 1 10.8001H3.5V17.5001C3.5 17.6327 3.55268 17.7598 3.64645 17.8536C3.74021 17.9474 3.86739 18.0001 4 18.0001H7C7.13261 18.0001 7.25979 17.9474 7.35355 17.8536C7.44732 17.7598 7.5 17.6327 7.5 17.5001V10.8001H10.12C10.2312 10.8017 10.3397 10.7661 10.4285 10.6991C10.5172 10.6321 10.5811 10.5374 10.61 10.4301L11.33 7.83005C11.3499 7.75618 11.3526 7.67872 11.3378 7.60364C11.3231 7.52857 11.2913 7.45788 11.2449 7.39702C11.1985 7.33617 11.1388 7.28676 11.0704 7.25261C11.0019 7.21846 10.9265 7.20048 10.85 7.20005H7.5V4.50005C7.52487 4.25253 7.64111 4.02317 7.82602 3.85675C8.01093 3.69033 8.25123 3.59881 8.5 3.60005H11C11.1326 3.60005 11.2598 3.54737 11.3536 3.45361C11.4473 3.35984 11.5 3.23266 11.5 3.10005V0.500053Z" fill="#070F1C"/>
</svg>
