<svg width="21" height="20" viewBox="0 0 21 20" fill="none" xmlns="http://www.w3.org/2000/svg">
<path d="M10.501 7C9.70533 7 8.94227 7.31607 8.37966 7.87868C7.81705 8.44129 7.50098 9.20435 7.50098 10C7.50098 10.7956 7.81705 11.5587 8.37966 12.1213C8.94227 12.6839 9.70533 13 10.501 13C11.2966 13 12.0597 12.6839 12.6223 12.1213C13.1849 11.5587 13.501 10.7956 13.501 10C13.501 9.20435 13.1849 8.44129 12.6223 7.87868C12.0597 7.31607 11.2966 7 10.501 7ZM10.501 5C11.8271 5 13.0988 5.52678 14.0365 6.46447C14.9742 7.40215 15.501 8.67392 15.501 10C15.501 11.3261 14.9742 12.5979 14.0365 13.5355C13.0988 14.4732 11.8271 15 10.501 15C9.17489 15 7.90312 14.4732 6.96544 13.5355C6.02776 12.5979 5.50098 11.3261 5.50098 10C5.50098 8.67392 6.02776 7.40215 6.96544 6.46447C7.90312 5.52678 9.17489 5 10.501 5ZM17.001 4.75C17.001 5.08152 16.8693 5.39946 16.6349 5.63388C16.4004 5.8683 16.0825 6 15.751 6C15.4195 6 15.1015 5.8683 14.8671 5.63388C14.6327 5.39946 14.501 5.08152 14.501 4.75C14.501 4.41848 14.6327 4.10054 14.8671 3.86612C15.1015 3.6317 15.4195 3.5 15.751 3.5C16.0825 3.5 16.4004 3.6317 16.6349 3.86612C16.8693 4.10054 17.001 4.41848 17.001 4.75ZM10.501 2C8.02698 2 7.62298 2.007 6.47198 2.058C5.68798 2.095 5.16198 2.2 4.67398 2.39C4.26559 2.53994 3.89639 2.78026 3.59398 3.093C3.28098 3.3954 3.04033 3.76458 2.88998 4.173C2.69998 4.663 2.59498 5.188 2.55898 5.971C2.50698 7.075 2.49998 7.461 2.49998 10C2.49998 12.475 2.50698 12.878 2.55798 14.029C2.59498 14.812 2.69998 15.339 2.88898 15.826C3.05898 16.261 3.25898 16.574 3.59098 16.906C3.92798 17.242 4.24098 17.443 4.67098 17.609C5.16498 17.8 5.69098 17.906 6.47098 17.942C7.57498 17.994 7.96098 18 10.5 18C12.975 18 13.378 17.993 14.529 17.942C15.311 17.905 15.837 17.8 16.326 17.611C16.734 17.4603 17.103 17.2201 17.406 16.908C17.743 16.572 17.944 16.259 18.11 15.828C18.3 15.336 18.406 14.81 18.442 14.028C18.494 12.925 18.5 12.538 18.5 10C18.5 7.526 18.493 7.122 18.442 5.971C18.405 5.189 18.299 4.661 18.11 4.173C17.9592 3.76502 17.719 3.39598 17.407 3.093C17.1047 2.77985 16.7355 2.53917 16.327 2.389C15.837 2.199 15.311 2.094 14.529 2.058C13.426 2.006 13.041 2 10.501 2ZM10.501 0C13.218 0 13.557 0.00999994 14.624 0.0599999C15.688 0.11 16.414 0.277 17.051 0.525C17.711 0.779 18.267 1.123 18.823 1.678C19.3315 2.1779 19.7249 2.78259 19.976 3.45C20.223 4.087 20.391 4.813 20.441 5.878C20.488 6.944 20.501 7.283 20.501 10C20.501 12.717 20.491 13.056 20.441 14.122C20.391 15.187 20.223 15.912 19.976 16.55C19.7256 17.2178 19.3321 17.8226 18.823 18.322C18.3229 18.8303 17.7183 19.2238 17.051 19.475C16.414 19.722 15.688 19.89 14.624 19.94C13.557 19.987 13.218 20 10.501 20C7.78398 20 7.44498 19.99 6.37798 19.94C5.31398 19.89 4.58898 19.722 3.95098 19.475C3.2833 19.2245 2.6785 18.8309 2.17898 18.322C1.67041 17.8222 1.27694 17.2175 1.02598 16.55C0.777977 15.913 0.610977 15.187 0.560977 14.122C0.512977 13.056 0.500977 12.717 0.500977 10C0.500977 7.283 0.510977 6.944 0.560977 5.878C0.610977 4.812 0.777977 4.088 1.02598 3.45C1.27621 2.78218 1.66978 2.17732 2.17898 1.678C2.67865 1.16923 3.28341 0.775729 3.95098 0.525C4.58798 0.277 5.31298 0.11 6.37798 0.0599999C7.44498 0.0129999 7.78398 0 10.501 0Z" fill="#070F1C"/>
</svg>
