<svg width="121" height="121" viewBox="0 0 121 121" fill="none" xmlns="http://www.w3.org/2000/svg">
<path fill-rule="evenodd" clip-rule="evenodd" d="M71.7518 13.3145C71.7518 12.9829 71.6201 12.665 71.3857 12.4306C71.1513 12.1961 70.8334 12.0645 70.5018 12.0645H35.5018C31.8551 12.0645 28.3577 13.5131 25.7791 16.0917C23.2005 18.6704 21.7518 22.1677 21.7518 25.8145V95.8145C21.7518 99.4612 23.2005 102.959 25.7791 105.537C28.3577 108.116 31.8551 109.564 35.5018 109.564H85.5018C89.1486 109.564 92.6459 108.116 95.2246 105.537C97.8032 102.959 99.2518 99.4612 99.2518 95.8145V46.5495C99.2518 46.2179 99.1201 45.9 98.8857 45.6656C98.6513 45.4311 98.3334 45.2995 98.0018 45.2995H75.5018C74.5073 45.2995 73.5534 44.9044 72.8502 44.2011C72.1469 43.4978 71.7518 42.544 71.7518 41.5495V13.3145ZM75.5018 62.0645C76.4964 62.0645 77.4502 62.4595 78.1535 63.1628C78.8567 63.8661 79.2518 64.8199 79.2518 65.8145C79.2518 66.809 78.8567 67.7628 78.1535 68.4661C77.4502 69.1694 76.4964 69.5645 75.5018 69.5645H45.5018C44.5073 69.5645 43.5534 69.1694 42.8502 68.4661C42.1469 67.7628 41.7518 66.809 41.7518 65.8145C41.7518 64.8199 42.1469 63.8661 42.8502 63.1628C43.5534 62.4595 44.5073 62.0645 45.5018 62.0645H75.5018ZM75.5018 82.0645C76.4964 82.0645 77.4502 82.4595 78.1535 83.1628C78.8567 83.8661 79.2518 84.8199 79.2518 85.8145C79.2518 86.809 78.8567 87.7628 78.1535 88.4661C77.4502 89.1694 76.4964 89.5645 75.5018 89.5645H45.5018C44.5073 89.5645 43.5534 89.1694 42.8502 88.4661C42.1469 87.7628 41.7518 86.809 41.7518 85.8145C41.7518 84.8199 42.1469 83.8661 42.8502 83.1628C43.5534 82.4595 44.5073 82.0645 45.5018 82.0645H75.5018Z" fill="#E3EFFE"/>
<path d="M79.2518 14.9345C79.2518 14.0145 80.2168 13.4295 80.9318 14.0045C81.5368 14.4945 82.0818 15.0645 82.5468 15.7145L97.6118 36.6995C97.9518 37.1795 97.5818 37.7995 96.9918 37.7995H80.5018C80.1703 37.7995 79.8524 37.6678 79.6179 37.4334C79.3835 37.1989 79.2518 36.881 79.2518 36.5495V14.9345Z" fill="#E3EFFE"/>
</svg>