<svg width="99" height="110" viewBox="0 0 99 110" fill="none" xmlns="http://www.w3.org/2000/svg">
<path d="M89.2433 0C94.6333 0 99.0003 4.477 99.0003 9.999V100.001C99.0003 105.523 94.6333 110 89.2433 110H19.4813C14.0913 110 9.72427 105.523 9.72427 100.001L9.71877 90.728H3.65777C2.67747 90.715 1.74226 90.3141 1.0568 89.6132C0.371342 88.9123 -0.00854893 87.9683 0.000265383 86.988C0.000265383 84.9145 1.63927 83.237 3.65777 83.237H9.71877V69.9325H3.65777C2.67554 69.9195 1.73866 69.5171 1.05289 68.8138C0.36711 68.1105 -0.0114807 67.1637 0.000265383 66.1815C0.000265383 64.108 1.63927 62.4305 3.65777 62.4305L9.71877 62.425V49.0545H3.65777C2.67747 49.0414 1.74226 48.6406 1.0568 47.9397C0.371342 47.2388 -0.00854893 46.2948 0.000265383 45.3145C0.000265383 43.241 1.63927 41.5635 3.65777 41.5635L9.71877 41.558V28.171H3.65777C2.67651 28.158 1.74046 27.7563 1.05485 27.0542C0.369228 26.3521 -0.0100134 25.4068 0.000265383 24.4255C0.000265383 22.352 1.63927 20.6745 3.65777 20.6745L9.71877 20.669L9.72427 9.999C9.72427 4.477 14.0913 0 19.4813 0H89.2433ZM71.3793 7.502H19.0633C18.8054 7.51219 18.5523 7.57502 18.3197 7.68663C18.087 7.79824 17.8796 7.95627 17.7103 8.151C17.3233 8.54913 17.0896 9.07121 17.0503 9.625V20.669H21.6923C22.1804 20.6711 22.6632 20.7704 23.1125 20.9611C23.5618 21.1519 23.9686 21.4303 24.3091 21.78C24.6496 22.1297 24.917 22.5438 25.0957 22.998C25.2743 23.4522 25.3607 23.9375 25.3498 24.4255C25.36 25.4068 24.9808 26.3521 24.2952 27.0542C23.6096 27.7563 22.6735 28.158 21.6923 28.171H17.0503V41.5415H21.8518L22.0993 41.58L21.6923 41.558C22.294 41.5575 22.8861 41.7088 23.4138 41.998L23.5238 42.0585C23.7779 42.2081 24.0078 42.3954 24.2058 42.614L23.9033 42.3225C24.3304 42.6579 24.6799 43.0817 24.9277 43.565C25.1755 44.0482 25.3157 44.5794 25.3388 45.122L25.3003 44.682C25.3908 45.1857 25.3763 45.7026 25.2579 46.2005C25.1394 46.6983 24.9194 47.1663 24.6117 47.5752C24.304 47.9841 23.9152 48.3251 23.4696 48.5768C23.024 48.8285 22.5313 48.9855 22.0223 49.038L21.8573 49.049L21.7693 49.0545H17.0503V62.425H21.6923C22.2837 62.4257 22.8658 62.5731 23.3863 62.854C23.7273 63.019 23.9968 63.217 24.2113 63.4645L24.0463 63.305C24.5834 63.7674 24.9796 64.3716 25.1897 65.0485C25.3997 65.7254 25.4152 66.4477 25.2343 67.133L25.1848 67.298C24.9259 68.1568 24.3678 68.8944 23.6118 69.377L23.5568 69.4045C22.9959 69.7485 22.3502 69.9294 21.6923 69.927H17.0503V83.2315H21.8518C21.8958 83.2315 21.9398 83.2425 21.9783 83.2535L21.6923 83.2315C23.7108 83.2315 25.3498 84.909 25.3498 86.9825C25.3498 88.2035 24.7778 89.2925 23.8923 89.9745L23.8208 90.0295C23.7124 90.1107 23.5985 90.1843 23.4798 90.2495L23.4358 90.2715C22.9732 90.5366 22.4555 90.6909 21.9233 90.7225H21.8518L21.7693 90.7335H21.6923L17.0503 90.728V100.43C17.0833 100.799 17.2153 101.145 17.4463 101.475L17.7103 101.794C18.1118 102.217 18.6068 102.454 19.1953 102.509H71.3793V7.502ZM89.3313 7.491H78.6723V102.498H89.5293C90.0298 102.498 90.4973 102.267 90.9373 101.783C91.3351 101.386 91.5937 100.871 91.6743 100.314V9.867C91.6251 9.25198 91.3647 8.6729 90.9373 8.228C90.732 8.00458 90.4842 7.82433 90.2085 7.69778C89.9327 7.57124 89.6345 7.50094 89.3313 7.491Z" fill="#E3EFFE"/>
</svg>