<svg width="17" height="18" viewBox="0 0 17 18" fill="none" xmlns="http://www.w3.org/2000/svg">
<path d="M13.1002 2.82C12.4166 2.03962 12.0399 1.03743 12.0402 0H8.95016V12.4C8.92632 13.071 8.64303 13.7066 8.15992 14.1729C7.67682 14.6393 7.0316 14.8999 6.36016 14.9C4.94016 14.9 3.76016 13.74 3.76016 12.3C3.76016 10.58 5.42016 9.29 7.13016 9.82V6.66C3.68016 6.2 0.660156 8.88 0.660156 12.3C0.660156 15.63 3.42016 18 6.35016 18C9.49016 18 12.0402 15.45 12.0402 12.3V6.01C13.2932 6.90985 14.7975 7.39265 16.3402 7.39V4.3C16.3402 4.3 14.4602 4.39 13.1002 2.82Z" fill="#070F1C"/>
</svg>
