<svg width="18" height="22" viewBox="0 0 18 22" fill="none" xmlns="http://www.w3.org/2000/svg">
<path d="M15.75 8.75C15.75 6.95979 15.0388 5.2429 13.773 3.97703C12.5071 2.71116 10.7902 2 9 2C7.20979 2 5.4929 2.71116 4.22703 3.97703C2.96116 5.2429 2.25 6.95979 2.25 8.75C2.25 11.519 4.4655 15.128 9 19.451C13.5345 15.128 15.75 11.519 15.75 8.75ZM9 21.5C3.4995 16.5005 0.75 12.2495 0.75 8.75C0.75 6.56196 1.61919 4.46354 3.16637 2.91637C4.71354 1.36919 6.81196 0.5 9 0.5C11.188 0.5 13.2865 1.36919 14.8336 2.91637C16.3808 4.46354 17.25 6.56196 17.25 8.75C17.25 12.2495 14.5005 16.5005 9 21.5Z" fill="white"/>
</svg>
