<svg width="8" height="8" viewBox="0 0 8 8" fill="none" xmlns="http://www.w3.org/2000/svg">
<path d="M4 6C4.59674 6 5.16903 5.76295 5.59099 5.34099C6.01295 4.91903 6.25 4.34674 6.25 3.75C6.25 3.15326 6.01295 2.58097 5.59099 2.15901C5.16903 1.73705 4.59674 1.5 4 1.5C3.40326 1.5 2.83097 1.73705 2.40901 2.15901C1.98705 2.58097 1.75 3.15326 1.75 3.75C1.75 4.34674 1.98705 4.91903 2.40901 5.34099C2.83097 5.76295 3.40326 6 4 6ZM4 7.5C3.00544 7.5 2.05161 7.10491 1.34835 6.40165C0.645088 5.69839 0.25 4.74456 0.25 3.75C0.25 2.75544 0.645088 1.80161 1.34835 1.09835C2.05161 0.395088 3.00544 0 4 0C4.99456 0 5.94839 0.395088 6.65165 1.09835C7.35491 1.80161 7.75 2.75544 7.75 3.75C7.75 4.74456 7.35491 5.69839 6.65165 6.40165C5.94839 7.10491 4.99456 7.5 4 7.5Z" fill="white"/>
</svg>
