<svg width="20" height="20" viewBox="0 0 20 20" fill="none" xmlns="http://www.w3.org/2000/svg">
<path d="M8 1.99983C6.4087 1.99983 4.88258 2.63197 3.75736 3.75719C2.63214 4.88241 2 6.40853 2 7.99983C2 9.59113 2.63214 11.1173 3.75736 12.2425C4.88258 13.3677 6.4087 13.9998 8 13.9998C9.5913 13.9998 11.1174 13.3677 12.2426 12.2425C13.3679 11.1173 14 9.59113 14 7.99983C14 6.40853 13.3679 4.88241 12.2426 3.75719C11.1174 2.63197 9.5913 1.99983 8 1.99983ZM4.94162e-08 7.99983C0.000182326 6.72669 0.304218 5.47198 0.886839 4.33997C1.46946 3.20797 2.31384 2.23136 3.3498 1.49132C4.38577 0.751273 5.5834 0.269166 6.84315 0.0850628C8.10291 -0.0990404 9.38842 0.0201774 10.5928 0.432808C11.7973 0.845439 12.8858 1.53957 13.768 2.4575C14.6502 3.37543 15.3006 4.49067 15.6651 5.71051C16.0296 6.93035 16.0977 8.21958 15.8638 9.47104C15.6298 10.7225 15.1006 11.9001 14.32 12.9058L19.707 18.2928C19.8892 18.4814 19.99 18.734 19.9877 18.9962C19.9854 19.2584 19.8802 19.5092 19.6948 19.6947C19.5094 19.8801 19.2586 19.9852 18.9964 19.9875C18.7342 19.9898 18.4816 19.889 18.293 19.7068L12.906 14.3198C11.7235 15.2379 10.307 15.8058 8.81777 15.9588C7.32851 16.1118 5.82619 15.8439 4.48165 15.1855C3.1371 14.5271 2.00429 13.5046 1.21202 12.2343C0.419759 10.964 -0.00016632 9.49693 4.94162e-08 7.99983Z" fill="#1B1F20"/>
</svg>
