<svg width="22" height="17" viewBox="0 0 22 17" fill="none" xmlns="http://www.w3.org/2000/svg">
<path fill-rule="evenodd" clip-rule="evenodd" d="M20.9521 7.88164C21.116 8.04571 21.208 8.2681 21.208 8.49998C21.208 8.73185 21.116 8.95425 20.9521 9.11831L13.9521 16.1183C13.872 16.2043 13.7754 16.2732 13.6681 16.3211C13.5607 16.3689 13.4449 16.3946 13.3274 16.3967C13.2099 16.3987 13.0932 16.3771 12.9842 16.3331C12.8753 16.2891 12.7763 16.2236 12.6932 16.1405C12.6101 16.0574 12.5446 15.9585 12.5006 15.8495C12.4566 15.7406 12.435 15.6239 12.4371 15.5064C12.4392 15.3889 12.4649 15.273 12.5127 15.1657C12.5605 15.0583 12.6295 14.9617 12.7154 14.8816L18.2221 9.37498L1.66711 9.37498C1.43505 9.37498 1.21248 9.28279 1.04839 9.11869C0.884296 8.9546 0.79211 8.73204 0.79211 8.49998C0.79211 8.26791 0.884296 8.04535 1.04839 7.88126C1.21248 7.71716 1.43505 7.62498 1.66711 7.62498L18.2221 7.62498L12.7154 2.11831C12.6295 2.0382 12.5605 1.9416 12.5127 1.83427C12.4649 1.72694 12.4392 1.61107 12.4371 1.49359C12.435 1.3761 12.4566 1.2594 12.5006 1.15044C12.5446 1.04149 12.6101 0.942519 12.6932 0.859431C12.7763 0.776342 12.8753 0.71084 12.9842 0.666832C13.0932 0.622824 13.2099 0.601213 13.3274 0.603286C13.4449 0.605359 13.5607 0.631074 13.6681 0.678898C13.7754 0.726722 13.872 0.795674 13.9521 0.881642L20.9521 7.88164Z" fill="white"/>
</svg>
