<svg width="20" height="18" viewBox="0 0 20 18" fill="none" xmlns="http://www.w3.org/2000/svg">
<path d="M18.5522 -0.00299827C18.3115 0.0145185 18.0751 0.071003 17.8525 0.164252H17.8495C17.6357 0.249002 16.6195 0.676502 15.0745 1.3245L9.53797 3.65625C5.56522 5.32875 1.65997 6.97575 1.65997 6.97575L1.70647 6.95775C1.70647 6.95775 1.43722 7.04625 1.15597 7.239C0.982219 7.34957 0.832703 7.49424 0.716473 7.66425C0.578473 7.86675 0.467473 8.1765 0.508723 8.49675C0.576223 9.03825 0.927223 9.363 1.17922 9.54225C1.43422 9.72375 1.67722 9.8085 1.67722 9.8085H1.68322L5.34547 11.0423C5.50972 11.5695 6.46147 14.6985 6.69022 15.4193C6.82522 15.8498 6.95647 16.119 7.12072 16.3245C7.20022 16.4295 7.29322 16.5173 7.40497 16.5878C7.46307 16.6215 7.52501 16.6482 7.58947 16.6673L7.55197 16.6583C7.56322 16.6613 7.57222 16.6703 7.58047 16.6733C7.61047 16.6815 7.63072 16.6845 7.66897 16.6905C8.24872 16.866 8.71447 16.506 8.71447 16.506L8.74072 16.485L10.903 14.5163L14.527 17.2965L14.6095 17.3318C15.3647 17.6633 16.1297 17.4788 16.534 17.1533C16.9412 16.8255 17.0995 16.4063 17.0995 16.4063L17.1257 16.3388L19.9262 1.992C20.0057 1.638 20.026 1.3065 19.9382 0.984752C19.8477 0.659121 19.6388 0.379057 19.3525 0.199502C19.112 0.0533379 18.8332 -0.0172119 18.5522 -0.00299827ZM18.4765 1.5345C18.4735 1.58175 18.4825 1.5765 18.4615 1.66725V1.6755L15.6872 15.873C15.6752 15.8933 15.655 15.9375 15.5995 15.9818C15.541 16.0283 15.4945 16.0575 15.2507 15.9608L10.8182 12.5625L8.14072 15.003L8.70322 11.4105L15.9452 4.6605C16.2437 4.383 16.144 4.3245 16.144 4.3245C16.165 3.984 15.6932 4.22475 15.6932 4.22475L6.56122 9.882L6.55822 9.867L2.18122 8.39325V8.39025L2.16997 8.388C2.17765 8.38545 2.18516 8.38245 2.19247 8.379L2.21647 8.367L2.23972 8.35875C2.23972 8.35875 6.14797 6.71175 10.1207 5.03925C12.1097 4.2015 14.1137 3.35775 15.655 2.70675C16.569 2.322 17.484 1.9395 18.4 1.55925C18.4615 1.53525 18.4322 1.5345 18.4765 1.5345Z" fill="white"/>
</svg>
