<svg width="19" height="19" viewBox="0 0 19 19" fill="none" xmlns="http://www.w3.org/2000/svg">
<path d="M17.8472 12.8556L13.4306 10.8766L13.4184 10.8709C13.1892 10.7729 12.939 10.7335 12.6907 10.7564C12.4424 10.7793 12.2037 10.8638 11.9963 11.0022C11.9718 11.0183 11.9484 11.0358 11.9259 11.0547L9.64407 13C8.19845 12.2978 6.70595 10.8166 6.00376 9.38968L7.95188 7.07312C7.97063 7.04968 7.98845 7.02624 8.00532 7.00093C8.14072 6.79403 8.22287 6.55686 8.24446 6.31053C8.26605 6.0642 8.22641 5.81636 8.12907 5.58906V5.57781L6.14438 1.15374C6.0157 0.856804 5.79444 0.609445 5.51362 0.448592C5.2328 0.287739 4.9075 0.222019 4.58626 0.261243C3.31592 0.428406 2.14986 1.05228 1.30588 2.01633C0.461903 2.98039 -0.00228837 4.2187 8.4831e-06 5.49999C8.4831e-06 12.9437 6.05626 19 13.5 19C14.7813 19.0023 16.0196 18.5381 16.9837 17.6941C17.9477 16.8501 18.5716 15.6841 18.7388 14.4137C18.7781 14.0926 18.7125 13.7674 18.5518 13.4866C18.3911 13.2058 18.144 12.9845 17.8472 12.8556ZM13.5 17.5C10.3185 17.4965 7.26825 16.2311 5.01856 13.9814C2.76888 11.7318 1.50348 8.68152 1.50001 5.49999C1.49648 4.58451 1.82631 3.69905 2.42789 3.00897C3.02947 2.31888 3.86167 1.87137 4.76907 1.74999C4.7687 1.75373 4.7687 1.7575 4.76907 1.76124L6.73782 6.16749L4.80001 8.48687C4.78034 8.5095 4.76247 8.53364 4.74657 8.55906C4.60549 8.77554 4.52273 9.0248 4.5063 9.28268C4.48988 9.54055 4.54035 9.7983 4.65282 10.0309C5.5022 11.7681 7.25251 13.5053 9.00845 14.3537C9.24279 14.4652 9.50203 14.5139 9.76083 14.4952C10.0196 14.4764 10.2692 14.3909 10.485 14.2469C10.5091 14.2307 10.5322 14.2131 10.5544 14.1944L12.8334 12.25L17.2397 14.2234H17.25C17.1301 15.1321 16.6833 15.966 15.9931 16.5691C15.3028 17.1721 14.4166 17.5031 13.5 17.5Z" fill="white"/>
</svg>
